# xmcd
#
# Track frame offsets: 
#        150
#        18834
#        45365
#
# Disc length: 859 seconds
#
# Revision: 0
# Processed by: cddbd v1.5.2PL0 Copyright (c) Steve Scherf et al.
# Submitted via: ExactAudioCopyFreeDBPlugin 1.0
#
DISCID=14035903
DTITLE=Trey Songz - Trigga (Deluxe Edition)
DYEAR=2014
DGENRE=R&B
TTITLE0=Hard To Walk Away
TTITLE1=Serial
TTITLE2=Sneaky
EXTD=
EXTT0=
EXTT1=
EXTT2=
PLAYORDER=
